# xmcd CD database file
#
# Track frame offsets:
#	150
#	31190
#	57397
#	84707
#	122245
#	156877
#	196730
#	235002
#	263300
#	305162
#	345017
#
# Disc length: 4739 seconds
#
# Revision: 5
# Processed by: cddbd v1.5.2PL0 Copyright (c) Steve Scherf et al.
# Submitted via: CDex 1.70beta3
#
DISCID=8512810b
DTITLE=ケイコ・リー - Live 1999
DYEAR=2000
DGENRE=Jazz
TTITLE0=If It's Love
TTITLE1=Come Rain Or Come Shine
TTITLE2=Time After Time
TTITLE3=My Love
TTITLE4=Day Dream
TTITLE5=Lover Man
TTITLE6=Summertime
TTITLE7=I Will Wait For You
TTITLE8=Afro Blue
TTITLE9=Lover Come Back To Me
TTITLE10=Imagine (Studio Short Version)
EXTD=YEAR: 2000
EXTT0=
EXTT1=
EXTT2=
EXTT3=
EXTT4=
EXTT5=
EXTT6=
EXTT7=
EXTT8=
EXTT9=
EXTT10=
PLAYORDER=
